<svg width="22" height="22" viewBox="0 0 22 22" fill="none" xmlns="http://www.w3.org/2000/svg">
<path d="M10.913 21.8478C4.9698 21.8478 0.152161 17.0302 0.152161 11.087C0.152161 5.14372 4.9698 0.32608 10.913 0.32608C16.8563 0.32608 21.6739 5.14372 21.6739 11.087C21.6739 17.0302 16.8563 21.8478 10.913 21.8478ZM5.54658 17.819C7.06984 19.0368 8.96282 19.6987 10.913 19.6956C13.0329 19.6956 14.9731 18.9295 16.4732 17.6597C15.7723 16.9406 14.9344 16.3693 14.009 15.9797C13.0835 15.5901 12.0893 15.39 11.0852 15.3913C10.0442 15.3901 9.01428 15.6053 8.06082 16.0232C7.10737 16.4411 6.25119 17.0526 5.54658 17.819ZM4.04329 16.2737C4.94769 15.3139 6.03908 14.5495 7.25018 14.0276C8.46128 13.5057 9.76644 13.2374 11.0852 13.2391C12.3568 13.2375 13.6161 13.487 14.791 13.9734C15.9658 14.4598 17.033 15.1735 17.9313 16.0735C18.8525 14.777 19.3965 13.2506 19.503 11.6636C19.6094 10.0767 19.2742 8.49131 18.5344 7.08332C17.7946 5.67534 16.6793 4.49982 15.312 3.68718C13.9448 2.87454 12.3792 2.45656 10.7889 2.4796C9.19852 2.50264 7.64566 2.96581 6.30256 3.81772C4.95945 4.66963 3.87861 5.87697 3.17994 7.3058C2.48127 8.73462 2.19209 10.3291 2.34449 11.9123C2.49689 13.4954 3.0849 15.0054 4.04329 16.2748V16.2737ZM10.913 12.163C9.77145 12.163 8.67662 11.7095 7.8694 10.9023C7.06217 10.0951 6.60868 9.00027 6.60868 7.85869C6.60868 6.71711 7.06217 5.62228 7.8694 4.81506C8.67662 4.00783 9.77145 3.55434 10.913 3.55434C12.0546 3.55434 13.1494 4.00783 13.9567 4.81506C14.7639 5.62228 15.2174 6.71711 15.2174 7.85869C15.2174 9.00027 14.7639 10.0951 13.9567 10.9023C13.1494 11.7095 12.0546 12.163 10.913 12.163ZM10.913 10.0109C11.4838 10.0109 12.0312 9.78412 12.4348 9.38051C12.8385 8.97689 13.0652 8.42948 13.0652 7.85869C13.0652 7.2879 12.8385 6.74048 12.4348 6.33687C12.0312 5.93326 11.4838 5.70652 10.913 5.70652C10.3422 5.70652 9.79483 5.93326 9.39121 6.33687C8.9876 6.74048 8.76086 7.2879 8.76086 7.85869C8.76086 8.42948 8.9876 8.97689 9.39121 9.38051C9.79483 9.78412 10.3422 10.0109 10.913 10.0109Z" fill="black"/>
</svg>
