<svg width="27" height="26" viewBox="0 0 27 26" fill="none" xmlns="http://www.w3.org/2000/svg">
<g clip-path="url(#clip0_3_78)">
<path d="M8.18466 8.78261V6.63043C8.18466 5.20345 8.75152 3.83492 9.76055 2.82589C10.7696 1.81687 12.1381 1.25 13.5651 1.25C14.9921 1.25 16.3606 1.81687 17.3696 2.82589C18.3787 3.83492 18.9455 5.20345 18.9455 6.63043V8.78261H22.1738C22.4592 8.78261 22.7329 8.89598 22.9347 9.09779C23.1365 9.29959 23.2499 9.5733 23.2499 9.8587V22.7717C23.2499 23.0571 23.1365 23.3308 22.9347 23.5326C22.7329 23.7345 22.4592 23.8478 22.1738 23.8478H4.9564C4.671 23.8478 4.39729 23.7345 4.19549 23.5326C3.99368 23.3308 3.88031 23.0571 3.88031 22.7717V9.8587C3.88031 9.5733 3.99368 9.29959 4.19549 9.09779C4.39729 8.89598 4.671 8.78261 4.9564 8.78261H8.18466ZM8.18466 10.9348H6.03248V21.6957H21.0977V10.9348H18.9455V13.087H16.7934V10.9348H10.3368V13.087H8.18466V10.9348ZM10.3368 8.78261H16.7934V6.63043C16.7934 5.77425 16.4532 4.95313 15.8478 4.34771C15.2424 3.74229 14.4213 3.40217 13.5651 3.40217C12.7089 3.40217 11.8878 3.74229 11.2824 4.34771C10.677 4.95313 10.3368 5.77425 10.3368 6.63043V8.78261Z" fill="#131212"/>
</g>
<defs>
<clipPath id="clip0_3_78">
<rect width="25.8261" height="25.8261" fill="white" transform="translate(0.6521 0.17392)"/>
</clipPath>
</defs>
</svg>
